#!OML:ASF H:\Male1\Project 1\Capture day 1\Session 1\Male1.ASF
:FULLY-SPECIFIED
:DEGREES
210
root 12.3498 14.5398 0.657952 152.178 -62.8371 -186.988
lowerback 26.5805 6.00966 -3.88078
upperback 17.1732 4.16539 -2.68385
thorax 4.53354 0.724629 -1.76927
lowerneck -1.57925 5.79801 6.64543
upperneck 7.65441 7.86167 -6.51401
head 3.3865 3.85287 -3.06113
rclavicle -3.18055e-014 4.29375e-014
rhumerus -42.7195 23.2324 -108.139
rradius 44.5954
rwrist -39.8591
rhand -51.5474 40.1822
rfingers 7.12502
rthumb -24.0736 11.6722
lclavicle -3.18055e-014 4.29375e-014
lhumerus -48.215 -6.59162 96.5063
lradius 59.0651
lwrist 27.9867
lhand -55.7782 -2.93352
lfingers 7.12502
lthumb -28.1242 24.9775
rfemur -35.6445 -9.88535 13.2116
rtibia 87.2176
rfoot 4.15522 -25.7917
rtoes 11.3108
lfemur -17.1249 35.7814 -3.16521
ltibia 105.777
lfoot 6.98786 -0.757461
ltoes -8.13005
211
root 12.3743 14.543 0.684584 152.757 -62.2366 -188.05
lowerback 26.8591 5.95457 -3.54686
upperback 17.0617 4.13333 -2.8068
thorax 4.30899 0.744985 -2.09613
lowerneck -1.65867 5.95693 6.98871
upperneck 7.90991 8.14114 -7.43096
head 3.21323 3.94891 -3.07965
rclavicle -2.66371e-014 -3.81667e-014
rhumerus -42.6203 23.5683 -108.278
rradius 44.1267
rwrist -39.6163
rhand -51.9624 40.2106
rfingers 7.12502
rthumb -24.4715 11.7538
lclavicle -2.66371e-014 -3.81667e-014
lhumerus -48.0513 -6.83245 96.5667
lradius 58.4839
lwrist 28.9452
lhand -55.7989 -3.87084
lfingers 7.12502
lthumb -28.144 24.0369
rfemur -36.9569 -9.30009 13.8164
rtibia 88.9193
rfoot 4.19485 -25.413
rtoes 9.92717
lfemur -16.5239 36.0057 -3.35353
ltibia 105.489
lfoot 7.04969 -0.772322
ltoes -8.81403
212
root 12.4011 14.5454 0.704746 153.225 -61.6484 -188.952
lowerback 27.1176 5.92937 -3.22557
upperback 16.9347 4.14767 -2.88747
thorax 4.07262 0.787385 -2.37946
lowerneck -1.75298 6.08828 7.37912
upperneck 7.95355 8.35113 -8.10382
head 3.30124 4.03714 -3.33137
rclavicle -2.32578e-014 3.81667e-014
rhumerus -42.5277 23.8359 -108.426
rradius 43.6297
rwrist -39.4665
rhand -52.4794 40.2795
rfingers 7.12502
rthumb -24.967 11.8907
lclavicle -2.32578e-014 3.81667e-014
lhumerus -47.8795 -7.17621 96.6653
lradius 57.8446
lwrist 29.7433
lhand -55.8476 -4.50633
lfingers 7.12502
lthumb -28.1906 23.3937
rfemur -38.1525 -8.62829 14.5902
rtibia 90.4493
rfoot 4.21904 -25.1458
rtoes 8.49444
lfemur -15.9882 36.2148 -3.45008
ltibia 105.239
lfoot 7.08031 -0.821456
ltoes -9.44162
213
root 12.4306 14.5474 0.717482 153.564 -61.1118 -189.679
lowerback 27.3641 5.92904 -2.92619
upperback 16.7978 4.19869 -2.92325
thorax 3.82665 0.845585 -2.60975
lowerneck -1.83565 6.18513 7.77526
upperneck 8.01592 8.51269 -8.73277
head 3.38958 4.10242 -3.57377
rclavicle 9.54166e-014 -2.38542e-014
rhumerus -42.4157 24.0589 -108.575
rradius 43.0507
rwrist -39.4656
rhand -52.967 40.4667
rfingers 7.12502
rthumb -25.4341 12.1436
lclavicle 9.54166e-014 -2.38542e-014
lhumerus -47.6776 -7.64044 96.8043
lradius 57.1376
lwrist 30.384
lhand -55.92 -4.73907
lfingers 7.12502
lthumb -28.2598 23.1496
rfemur -39.1868 -7.90681 15.513
rtibia 91.7868
rfoot 4.2281 -24.9915
rtoes 7.25226
lfemur -15.5115 36.3888 -3.45644
ltibia 105.018
lfoot 7.08043 -0.894304
ltoes -9.90733
214
root 12.4627 14.5505 0.72249 153.769 -60.6655 -190.233
lowerback 27.5999 5.94811 -2.64492
upperback 16.6566 4.27954 -2.92013
thorax 3.57833 0.916572 -2.79447
lowerneck -1.90498 6.24033 8.18898
upperneck 8.11773 8.61514 -9.29702
head 3.48197 4.14056 -3.80319
rclavicle 1.13307e-014 5.80451e-014
rhumerus -42.2462 24.1894 -108.7
rradius 42.3162
rwrist -39.641
rhand -53.151 40.8607
rfingers 7.12502
rthumb -25.6104 12.5629
lclavicle 1.13307e-014 5.80451e-014
lhumerus -47.4298 -8.24685 96.981
lradius 56.3551
lwrist 30.8668
lhand -56.0215 -4.61467
lfingers 7.12502
lthumb -28.3568 23.2579
rfemur -40.0198 -7.17631 16.5512
rtibia 92.9136
rfoot 4.23547 -24.9256
rtoes 6.26966
lfemur -15.0817 36.5015 -3.38801
ltibia 104.808
lfoot 7.05994 -0.989501
ltoes -10.2072
215
root 12.4971 14.5564 0.719845 153.853 -60.3409 -190.637
lowerback 27.8213 5.9839 -2.3859
upperback 16.5201 4.38461 -2.8871
thorax 3.33988 0.997148 -2.93986
lowerneck -1.95967 6.24669 8.63389
upperneck 8.27062 8.64775 -9.78124
head 3.57962 4.14748 -4.01804
rclavicle 3.00165e-014 -4.37326e-014
rhumerus -41.9793 24.148 -108.762
rradius 41.4005
rwrist -39.966
rhand -52.9026 41.5241
rfingers 7.12502
rthumb -25.3724 13.1922
lclavicle 3.00165e-014 -4.37326e-014
lhumerus -47.132 -8.98213 97.1811
lradius 55.5104
lwrist 31.1747
lhand -56.14 -4.21579
lfingers 7.12502
lthumb -28.47 23.6379
rfemur -40.6138 -6.46927 17.6568
rtibia 93.8134
rfoot 4.2263 -24.9222
rtoes 5.63969
lfemur -14.6846 36.5256 -3.27062
ltibia 104.592
lfoot 7.04334 -1.07152
ltoes -10.2127
216
root 12.5332 14.5662 0.709742 153.892 -60.1745 -190.976
lowerback 28.0207 6.04446 -2.1858
upperback 16.3981 4.51385 -2.83747
thorax 3.12463 1.08445 -3.03973
lowerneck -1.99639 6.1924 9.11198
upperneck 8.46668 8.59311 -10.171
head 3.67628 4.11596 -4.21577
rclavicle -4.01545e-014 6.52014e-014
rhumerus -41.593 23.8785 -108.742
rradius 40.3272
rwrist -40.3857
rhand -52.3173 42.4221
rfingers 7.12502
rthumb -24.8116 14.0118
lclavicle -4.01545e-014 6.52014e-014
lhumerus -46.7729 -9.83001 97.3881
lradius 54.6159
lwrist 31.2786
lhand -56.2496 -3.60883
lfingers 7.12502
lthumb -28.5747 24.2273
rfemur -40.9546 -5.81443 18.7451
rtibia 94.4837
rfoot 4.16425 -24.9439
rtoes 5.50191
lfemur -14.3257 36.4322 -3.18703
ltibia 104.351
lfoot 7.05568 -1.112
ltoes -10.0051
